PathFileType	3	(X/Y/Z)	D:\Jess\PFP\Labelled\PA12\20250811\SRRun01.trc
DataRate	CameraRate	NumFrames	NumMarkers	Units	OrigDataRate	OrigDataStartFrame	OrigNumFrames
250.0	250.0	4	37	mm	250.0	36875	2501
Frame#	Time	C7			T10			CLAV			LSHO			RSHO			LASIS			RASIS			LPSIS			RPSIS			LILCR			RILCR			LGTR			LTHI			LLTHI			LLEP			LMEP			LPSH			LLSH			LDSH			LLMAL			LMMAL			LTOE			L5TH			LHEE			RGTR			RTHI			RLTHI			RLEP			RMEP			RPSH			RLSH			RDSH			RLMAL			RMMAL			RTOE			R5TH			RHEE			
		X1	Y1	Z1	X2	Y2	Z2	X3	Y3	Z3	X4	Y4	Z4	X5	Y5	Z5	X6	Y6	Z6	X7	Y7	Z7	X8	Y8	Z8	X9	Y9	Z9	X10	Y10	Z10	X11	Y11	Z11	X12	Y12	Z12	X13	Y13	Z13	X14	Y14	Z14	X15	Y15	Z15	X16	Y16	Z16	X17	Y17	Z17	X18	Y18	Z18	X19	Y19	Z19	X20	Y20	Z20	X21	Y21	Z21	X22	Y22	Z22	X23	Y23	Z23	X24	Y24	Z24	X25	Y25	Z25	X26	Y26	Z26	X27	Y27	Z27	X28	Y28	Z28	X29	Y29	Z29	X30	Y30	Z30	X31	Y31	Z31	X32	Y32	Z32	X33	Y33	Z33	X34	Y34	Z34	X35	Y35	Z35	X36	Y36	Z36	X37	Y37	Z37	

1876	147.496	840.0677117902741	1577.148742316737	-322.2956364581285	754.2452340575268	1293.608554935295	-326.5625667284677	984.3613993908727	1463.697073751662	-370.074508249157	855.3332602800502	1580.029614098701	-477.8656579081799	920.7096600443612	1559.494965666763	-201.1807290879849	976.271539063656	1050.114945132395	-474.3062630269462	976.8463790869343	1031.722101347402	-243.0799147449897	767.3783092876647	1099.250004735793	-367.3019950609466	766.6874915877139	1103.276572382486	-325.3617599852206	891.5737948020874	1146.555184247318	-535.4777057937368	883.6643914001472	1137.465009095733	-170.1665243176671	930.678624363005	942.8813150033981	-545.0684841384096	1062.865696328659	796.6041789308125	-452.18796951911	985.6078038404823	672.7118923491191	-520.552866534149	1009.901648882027	544.4104261464848	-494.7255412190659	nan	nan	nan	1076.557113236982	478.7550517523525	-436.6958380493626	1023.088693184556	342.6251460614855	-495.5002211458849	1110.231068605433	247.3132373657744	-427.2656593610638	1091.903436195406	121.1632411764008	-452.8103254724214	nan	nan	nan	1255.644000669094	129.0140819820525	-442.5781097444682	1233.528971912079	77.90827717794284	-470.3571763363472	1032.172673747272	74.77701167585656	-398.8866726115288	829.1351199262677	940.1786981271628	-154.9977554243469	932.7089557503654	707.0481236641515	-247.6909862990997	771.9686292710975	676.8490628894039	-197.1259441610252	715.5932287723374	564.4519005934166	-219.5894597985504	nan	nan	nan	687.4528680993151	450.3691167520161	-272.8116849166835	542.4752407994141	457.5399840265176	-231.8636244781649	489.0570967368245	323.1857436410431	-284.1012437967337	373.5760044253586	305.8250019958973	-268.426749256087	nan	nan	nan	380.0188459301208	147.9402329900067	-246.9369633629696	328.1961828006077	178.2271205721814	-226.3019821889336	331.239558949027	354.9801330254655	-352.4124326046114	
1877	147.5	840.0461477856636	1575.067061988448	-323.0515146744151	753.9944081129881	1291.670415063483	-327.3285677110831	984.2893424192669	1461.872054661361	-370.5338607589911	855.2271809264874	1577.680658355516	-478.6701852758259	920.6552111956011	1557.565142869236	-201.5659431488205	976.15350172618	1048.229287463886	-474.5391458309059	977.3204236068618	1030.876340656017	-243.2886301029364	767.3005520750237	1096.311186023732	-367.49320649305	766.6591437392343	1100.435208657041	-325.567662408664	891.1297324677755	1144.102877405511	-535.6923150933594	882.848865086186	1136.176713123438	-170.4255194298661	930.2559528365857	940.2196509432341	-545.2554241920814	1063.301880526044	795.2031597347523	-453.2510661061038	985.5250001780425	671.0053934369867	-520.3801548591069	1008.73290957612	542.2344559420586	-495.2087448561385	nan	nan	nan	1074.968124042207	475.9532306401697	-437.447028648011	1019.587717435752	340.2648008425355	-495.4348768959283	1105.911074041531	244.1352780873747	-427.2333088796431	1085.417145852021	118.4978505548196	-452.4286802840696	nan	nan	nan	1249.341241271684	123.6068423313131	-443.1744768605724	1226.056663627307	73.35974935349005	-471.1809689520567	1025.180318684859	73.99996298089744	-398.148927985269	830.7197476773883	937.8421843621497	-154.9716958961045	936.3964023619029	705.3350429521795	-248.0046128875517	776.3960853351016	672.7860022407679	-196.622772953939	721.3032075170028	560.9042308764172	-219.1566028641688	nan	nan	nan	691.0305559306543	447.7120550914147	-271.8613886957381	545.8693342797453	458.9583322190641	-231.5192836944719	489.2786602333139	325.7476933069748	-283.2556669394575	373.2679352006882	311.3989802864488	-267.7880689832259	nan	nan	nan	376.4120889954741	153.7041330423452	-245.2389507369373	325.2655714493285	185.1838196074445	-224.7168445222045	332.0363907690925	361.028808154018	-352.1284334306386	
1878	147.504	839.9842456290168	1572.813698016395	-323.8519664163258	753.7494580822784	1289.518430568285	-328.0586811533551	984.2123797778586	1459.883475679931	-370.9719953281632	855.1029030449158	1575.136948220621	-479.5305709769431	920.6005835045977	1555.477914638412	-201.9381298823608	975.9919256807226	1046.142339224361	-474.7557208372785	977.7564999362314	1029.794456113565	-243.4409896833724	767.1636882186581	1093.1327677868	-367.7392093423482	766.5757108983514	1097.334278323741	-325.8219732150966	890.6546979942123	1141.405031186205	-535.9146699067653	881.9391760690976	1134.566042417504	-170.6779396321862	929.8866620403995	937.5255667767143	-545.4497329823374	1063.820469967099	793.9031896566865	-454.2749351505486	985.4198302972467	669.2983607956807	-520.1995812733101	1007.480369317293	539.9433691124202	-495.698009814449	nan	nan	nan	1073.341581315771	472.9925099080649	-438.2035511548202	1015.95005034833	337.7964558938788	-495.2717554862539	1101.32886202141	240.8467363729025	-427.0164768457986	1078.490418435304	115.8243542336972	-451.8388173187873	nan	nan	nan	1242.589610538625	118.0531012589058	-443.630479097449	1218.056580105146	68.81372776996496	-471.9733442402755	1017.710039963883	73.31029588344848	-397.2345088684344	832.2662431804895	935.2393580862301	-154.9412857233198	940.0726565960663	703.4753001115976	-248.3100043935089	780.9129159773714	668.545555427674	-196.0554713479312	727.095141642554	557.253268150924	-218.6440037528205	nan	nan	nan	694.8153734641553	445.0101499325608	-270.8797843394887	549.5905510261549	460.251033148405	-231.0556247569707	489.8852344007367	328.2612531118731	-282.398670691317	373.4564178008175	316.8528641772002	-267.0422840216798	nan	nan	nan	373.3650611728862	159.3896923101964	-243.7145454172447	322.941674577724	191.9895647225959	-223.1990703483399	333.2116571319082	367.0545755820415	-351.5841297841092	
1879	147.508	839.8755820489774	1570.400810168458	-324.6957604307038	753.5105040623462	1287.160574701924	-328.7437690731527	984.1339984695979	1457.729510284396	-371.3882657671902	854.9612951989814	1572.40332885253	-480.4492778981116	920.547498277855	1553.24136401332	-202.2931998072903	975.7799937721676	1043.862907741911	-474.9569575276933	978.1502279745005	1028.4649446864	-243.5454780949374	766.9597768727571	1089.733410767358	-368.0308375954384	766.4319902527011	1093.98518420469	-326.1147033595819	890.15475904886	1138.470805846427	-536.1490063044901	880.9568452331099	1132.618919731539	-170.9177341934347	929.5691886656975	934.8136339425718	-545.6563149187317	1064.390250434821	792.6617177345445	-455.2598886400815	985.2661097073463	667.5781737566064	-520.0251884405151	1006.160143314007	537.5554630148631	-496.1754995017361	nan	nan	nan	1071.693627912386	469.9097035621281	-438.9281451327737	1012.22691098188	335.2546567793746	-495.0013674423258	1096.519750931018	237.4965976088634	-426.5896004759784	1071.186849815295	113.1971247712276	-451.0315571271238	nan	nan	nan	1235.441262020389	112.4598564322069	-443.9041682007518	1209.606802332425	64.37495281626578	-472.6995413491993	1009.829213981853	72.71871654226781	-396.1551240613527	833.7723090315837	932.3681429729793	-154.9068807026219	943.7252764096678	701.475625182051	-248.5910835317137	785.5017646618014	664.1548591263446	-195.4287424437093	732.9519750418149	553.5155994501381	-218.0526149163861	nan	nan	nan	698.8030803804463	442.2722012882798	-269.8783114748022	553.6333643112138	461.3932817758738	-230.4671490554198	490.8837142252585	330.7100900119944	-281.5346898916097	374.1438772440846	322.1613262196174	-266.1916572746659	nan	nan	nan	370.8873105409456	164.9629266974158	-242.3678351633698	321.224614884302	198.6085138524747	-221.7587893013741	334.778496556522	373.0382307025516	-350.786447426826	
